# xmcd CD database file
#
# Track frame offsets:
#	150
#	9696
#	23970
#	39366
#	56931
#	78305
#	93487
#	106095
#	125645
#	140163
#
# Disc length: 2017 seconds
#
# Revision: 0
# Processed by: cddbd v1.5.1PL2 Copyright (c) Steve Scherf et al.
# Submitted via: CDex 1.51
#
DISCID=8507df0a
DTITLE=Louis Armstrong - Recopilatorio
DYEAR=1992
DGENRE=Jazz
TTITLE0=What a wonderful world
TTITLE1=When the saints go marchin'in
TTITLE2=C'est si bon
TTITLE3=Cabaret
TTITLE4=Jeepers Creepers
TTITLE5=Mack the knife
TTITLE6=St. Louis blues
TTITLE7=Indiana
TTITLE8=Blueberry Hill
TTITLE9=Hello Dolly
EXTD=YEAR: 1992
EXTT0=
EXTT1=
EXTT2=
EXTT3=
EXTT4=
EXTT5=
EXTT6=
EXTT7=
EXTT8=
EXTT9=
PLAYORDER=
